<svg xmlns="http://www.w3.org/2000/svg" viewBox="0 0 512 640"><defs><linearGradient id="bg" x2="0" y2="1"><stop stop-color="#5fc9ef"/><stop offset=".48" stop-color="#244e70"/><stop offset="1" stop-color="#0b1625"/></linearGradient><radialGradient id="glow"><stop stop-color="#dff8ff" stop-opacity=".95"/><stop offset=".28" stop-color="#59d8ff" stop-opacity=".55"/><stop offset="1" stop-color="#59d8ff" stop-opacity="0"/></radialGradient><linearGradient id="steel" x2="1" y2="1"><stop stop-color="#e9f6fb"/><stop offset=".35" stop-color="#829cab"/><stop offset=".7" stop-color="#405968"/><stop offset="1" stop-color="#1c2c36"/></linearGradient></defs><rect width="512" height="640" fill="url(#bg)"/><circle cx="348" cy="180" r="174" fill="url(#glow)"/><path d="M-20 516L300 202M44 626L395 270" stroke="#a7ecff" stroke-width="9" opacity=".12"/><g transform="translate(18 18)"><path d="M126 542l42-276 88-71 90 73 45 274z" fill="#1d3547"/><path d="M164 323l92-67 94 67-21 151-73 57-74-57z" fill="url(#steel)" stroke="#d9edf4" stroke-width="8"/><path d="M194 219l62-50 64 50-12 96h-104z" fill="#314b5c" stroke="#91b1c1" stroke-width="8"/><path d="M205 233h102l-9 43-42 17-43-17z" fill="#152631"/><path d="M216 241h80" stroke="#aeefff" stroke-width="10" stroke-linecap="round" opacity=".9"/><circle cx="256" cy="393" r="34" fill="#45cff7" stroke="#d8faff" stroke-width="8"/><path d="M256 364l13 21 25 5-18 18 4 26-24-12-24 12 5-26-19-18 25-5z" fill="#eaffff"/><path d="M105 342l73-32 28 210-108 33z" fill="#486a7c" stroke="#d7edf4" stroke-width="10"/><path d="M119 358l55-22 17 154-76 23z" fill="#183f55"/><path d="M359 287l35 20-111 266-35-17z" fill="#edf7fa"/><path d="M340 280l77 39-14 29-77-39z" fill="#734b2b"/><path d="M361 306l22 11" stroke="#54d8ff" stroke-width="8"/><path d="M174 334l-31 40M337 335l35 41" stroke="#e9f7fb" stroke-width="16" stroke-linecap="round"/></g><path d="M355 149l32 18-25 22zM401 201l20 10-17 14z" fill="#e6fbff" opacity=".7"/><!-- V12 cinematic card-art pass --><g opacity=".55"><path d="M64 505L250 315" stroke="#b6f3ff" stroke-width="8" stroke-linecap="round"/><circle cx="92" cy="476" r="7" fill="#eaffff"/><circle cx="126" cy="442" r="4" fill="#8ee8ff"/></g><rect x="8" y="8" width="496" height="624" rx="20" fill="none" stroke="#ffffff" stroke-opacity=".09" stroke-width="7"/></svg>