<svg xmlns="http://www.w3.org/2000/svg" viewBox="0 0 512 640"><defs><linearGradient id="bg" x2="0" y2="1"><stop stop-color="#d05aff"/><stop offset=".46" stop-color="#6d2aa0"/><stop offset="1" stop-color="#1c0e32"/></linearGradient><radialGradient id="nova"><stop stop-color="#fff"/><stop offset=".18" stop-color="#f9c7ff"/><stop offset=".45" stop-color="#e85dff" stop-opacity=".9"/><stop offset="1" stop-color="#8b2bd2" stop-opacity="0"/></radialGradient></defs><rect width="512" height="640" fill="url(#bg)"/><circle cx="258" cy="370" r="213" fill="url(#nova)" opacity=".72"/><path d="M55 377h402M83 286l347 183M87 468l340-191" stroke="#f0a7ff" stroke-width="7" opacity=".13"/><g><path d="M208 126h96v98l67 72q49 51 19 144-31 96-134 96-102 0-134-96-30-93 19-144l67-72z" fill="#6d399e" fill-opacity=".65" stroke="#e9b5ff" stroke-width="15"/><path d="M202 133h108v57H202z" fill="#6f4a2f" stroke="#b58b63" stroke-width="7"/><path d="M158 356q99 61 198 0 10 65-13 112-27 57-87 57-59 0-87-57-22-47-11-112z" fill="#dd50ff" opacity=".84"/><circle cx="256" cy="410" r="70" fill="url(#nova)"/><path d="M256 322l26 54 60 9-43 42 10 60-53-28-54 28 11-60-44-42 60-9z" fill="#fff" opacity=".94"/></g><path d="M139 165l35 23M367 149l-39 31" stroke="#fff" stroke-width="9" opacity=".38"/><!-- V12 cinematic card-art pass --><circle cx="256" cy="397" r="132" fill="none" stroke="#ffd9ff" stroke-width="7" opacity=".24"/><circle cx="256" cy="397" r="162" fill="none" stroke="#e075ff" stroke-width="5" opacity=".18"/><g fill="#fff1ff" opacity=".72"><circle cx="94" cy="293" r="6"/><circle cx="409" cy="365" r="7"/></g><rect x="8" y="8" width="496" height="624" rx="20" fill="none" stroke="#ffffff" stroke-opacity=".09" stroke-width="7"/></svg>