<svg xmlns="http://www.w3.org/2000/svg" viewBox="0 0 512 640"><defs><linearGradient id="bg" x2="0" y2="1"><stop stop-color="#ddb06c"/><stop offset=".48" stop-color="#81553b"/><stop offset="1" stop-color="#281b18"/></linearGradient><radialGradient id="gold"><stop stop-color="#fff0a8"/><stop offset=".3" stop-color="#ffc454"/><stop offset="1" stop-color="#d98922" stop-opacity="0"/></radialGradient></defs><rect width="512" height="640" fill="url(#bg)"/><circle cx="350" cy="168" r="142" fill="url(#gold)" opacity=".72"/><path d="M63 531L422 265" stroke="#f3d19a" stroke-width="10" opacity=".12"/><g><ellipse cx="258" cy="403" rx="157" ry="132" fill="#78543b"/><ellipse cx="258" cy="310" rx="96" ry="88" fill="#5d4030"/><path d="M183 300q-108-120-107 56 15-70 79-35z" fill="#f0d9ae" stroke="#8f6a42" stroke-width="8"/><path d="M333 300q108-120 107 56-15-70-79-35z" fill="#f0d9ae" stroke="#8f6a42" stroke-width="8"/><circle cx="225" cy="315" r="17" fill="#ffd768"/><circle cx="291" cy="315" r="17" fill="#ffd768"/><circle cx="225" cy="315" r="6" fill="#3b271c"/><circle cx="291" cy="315" r="6" fill="#3b271c"/><path d="M224 371h68l-34 34z" fill="#2b201b"/><path d="M156 230h204l-30 52H187z" fill="#566c7f" stroke="#d8b658" stroke-width="8"/><circle cx="258" cy="255" r="23" fill="#ffca4e" stroke="#ffe89b" stroke-width="6"/><rect x="167" y="468" width="48" height="112" rx="20" fill="#473128"/><rect x="301" y="468" width="48" height="112" rx="20" fill="#473128"/><path d="M160 433l-31 95M356 433l31 95" stroke="#5b3d30" stroke-width="30" stroke-linecap="round"/></g><path d="M96 166l63 44M408 152l-60 52" stroke="#ffe095" stroke-width="10" opacity=".25"/><!-- V12 cinematic card-art pass --><path d="M18 520Q136 468 264 512T500 490" fill="none" stroke="#e7d0aa" stroke-width="24" opacity=".16"/><g fill="#ffd77c" opacity=".55"><circle cx="414" cy="242" r="6"/><circle cx="92" cy="309" r="5"/></g><rect x="8" y="8" width="496" height="624" rx="20" fill="none" stroke="#ffffff" stroke-opacity=".09" stroke-width="7"/></svg>